HIERARCHY
ROOT Hips
{
	OFFSET 52.594501 -11.408813 84.272202
	CHANNELS 6 Xposition Yposition Zposition Xrotation Yrotation Zrotation
	JOINT spine
	{
		OFFSET 0.000000 -0.342408 5.954376
		CHANNELS 3 Xrotation Yrotation Zrotation
		JOINT spine1
		{
			OFFSET 0.000000 -0.000002 8.856018
			CHANNELS 3 Xrotation Yrotation Zrotation
			JOINT spine2
			{
				OFFSET 0.000000 -0.000001 8.485672
				CHANNELS 3 Xrotation Yrotation Zrotation
				JOINT Neck
				{
					OFFSET 0.000000 -1.038704 21.786301
					CHANNELS 3 Xrotation Yrotation Zrotation
					JOINT Head
					{
						OFFSET 0.000000 -0.000001 6.582199
						CHANNELS 3 Xrotation Yrotation Zrotation
						End Site
						{
							OFFSET 0.000000 5.254357 15.932602
						}
					}
				}
				JOINT RightShoulder
				{
					OFFSET -3.573071 0.497523 9.163864
					CHANNELS 3 Xrotation Yrotation Zrotation
					JOINT RightArm
					{
						OFFSET 0.000000 -0.000002 12.019196
						CHANNELS 3 Xrotation Yrotation Zrotation
						JOINT RightArmRoll
						{
							OFFSET 0.000000 -0.000001 6.067535
							CHANNELS 3 Xrotation Yrotation Zrotation
							JOINT RightForeArm
							{
								OFFSET 0.000000 -0.000003 17.672592
								CHANNELS 3 Xrotation Yrotation Zrotation
								JOINT RightForeArmRoll
								{
									OFFSET 0.000000 -0.000001 6.808716
									CHANNELS 3 Xrotation Yrotation Zrotation
									JOINT RightHand
									{
										OFFSET 0.000000 -0.000003 13.663605
										CHANNELS 3 Xrotation Yrotation Zrotation
										End Site
										{
											OFFSET 0.000000 0.000000 0.100006
										}
									}
								}
							}
						}
					}
				}
				JOINT LeftShoulder
				{
					OFFSET 3.573071 0.497523 9.163864
					CHANNELS 3 Xrotation Yrotation Zrotation
					JOINT LeftArm
					{
						OFFSET 0.000000 -0.000002 12.019196
						CHANNELS 3 Xrotation Yrotation Zrotation
						JOINT LeftArmRoll
						{
							OFFSET 0.000000 -0.000001 6.067535
							CHANNELS 3 Xrotation Yrotation Zrotation
							JOINT LeftForeArm
							{
								OFFSET 0.000000 -0.000003 17.672592
								CHANNELS 3 Xrotation Yrotation Zrotation
								JOINT LeftForeArmRoll
								{
									OFFSET 0.000000 -0.000001 6.808716
									CHANNELS 3 Xrotation Yrotation Zrotation
									JOINT LeftHand
									{
										OFFSET 0.000000 -0.000003 13.663605
										CHANNELS 3 Xrotation Yrotation Zrotation
										End Site
										{
											OFFSET 0.000000 0.000000 0.100006
										}
									}
								}
							}
						}
					}
				}
			}
		}
	}
	JOINT RightUpLeg
	{
		OFFSET -5.277740 0.811858 -0.967796
		CHANNELS 3 Xrotation Yrotation Zrotation
		JOINT RightUpLegRoll
		{
			OFFSET 0.000000 -0.000003 16.021400
			CHANNELS 3 Xrotation Yrotation Zrotation
			JOINT RightLeg
			{
				OFFSET 0.000000 0.000003 -19.840103
				CHANNELS 3 Xrotation Yrotation Zrotation
				JOINT RightLegRoll
				{
					OFFSET 0.000000 -0.000003 19.904999
					CHANNELS 3 Xrotation Yrotation Zrotation
					JOINT RightFoot
					{
						OFFSET 0.000000 -0.000003 16.567497
						CHANNELS 3 Xrotation Yrotation Zrotation
						JOINT RightToeBase
						{
							OFFSET 0.000000 -0.000002 13.849602
							CHANNELS 3 Xrotation Yrotation Zrotation
							End Site
							{
								OFFSET 0.005871 0.773116 6.707275
							}
						}
					}
				}
			}
		}
	}
	JOINT LeftUpLeg
	{
		OFFSET 5.277740 0.811858 -0.967796
		CHANNELS 3 Xrotation Yrotation Zrotation
		JOINT LeftUpLegRoll
		{
			OFFSET 0.000000 -0.000003 16.021500
			CHANNELS 3 Xrotation Yrotation Zrotation
			JOINT LeftLeg
			{
				OFFSET 0.000000 -0.000003 19.840004
				CHANNELS 3 Xrotation Yrotation Zrotation
				JOINT LeftLegRoll
				{
					OFFSET 0.000000 -0.000004 20.089005
					CHANNELS 3 Xrotation Yrotation Zrotation
					JOINT LeftFoot
					{
						OFFSET 0.000000 -0.000003 16.383499
						CHANNELS 3 Xrotation Yrotation Zrotation
						JOINT LeftToeBase
						{
							OFFSET 0.000000 -0.000002 13.849594
							CHANNELS 3 Xrotation Yrotation Zrotation
							End Site
							{
								OFFSET -0.026310 0.773116 6.707275
							}
						}
					}
				}
			}
		}
	}
}
MOTION
Frames: 12
Frame Time: 0.041667
53.684204 -9.024207 83.155907 3.006547 1.255392 83.135669 -2.560960 1.168312 0.085901 -1.121660 2.333303 0.209854 0.523974 2.335651 0.181766 -14.120245 41.188605 0.805549 12.363260 -38.123818 -7.114685 20.368705 -45.627993 27.095943 102.498518 -3.208027 83.060093 -0.000003 0.000001 -0.000007 -0.029071 3.640809 -1.991413 0.000008 0.000004 -3.011592 -4.999900 -7.999888 0.000003 -85.878776 73.491387 94.066424 99.314434 45.339287 -95.522067 -0.000016 0.000029 0.000005 -0.027254 -3.643530 1.990736 -0.000015 -0.000009 3.011610 -5.000141 7.999928 0.000025 -1.462546 -183.016039 -0.928180 179.999991 -0.000005 -1.124995 166.857355 1.778207 -0.417881 -0.000003 -0.000002 0.484567 72.553978 6.808366 2.131627 27.767384 -7.416533 -1.350606 -18.414243 -177.371625 3.532322 -0.000003 -0.000004 -0.794646 -16.023622 0.537410 0.631392 -0.000004 0.000001 -0.119914 68.049263 -6.878097 -2.219042 25.456952 7.355622 -0.000005 
53.663700 -8.999107 83.157898 3.048134 1.281884 83.080242 -2.560827 1.165805 0.086865 -1.121406 2.328254 0.212078 0.524227 2.330632 0.184023 -14.078762 41.164669 0.841042 12.374942 -38.068360 -7.060464 20.411358 -45.684093 27.131687 102.649602 -3.296924 83.106422 -0.000002 0.000002 -0.000006 -0.029092 3.640831 -1.991414 0.000009 0.000001 -3.011590 -4.999899 -7.999890 0.000005 -85.772232 73.464811 93.964565 99.244165 45.526035 -95.546464 -0.000017 0.000028 0.000006 -0.027257 -3.643611 1.990737 -0.000019 -0.000010 3.011609 -5.000138 7.999928 0.000025 -1.511848 -182.952996 -0.903893 179.999991 -0.000005 -1.123998 166.844665 1.776161 -0.418942 -0.000003 -0.000002 0.484802 72.555679 6.808310 2.131516 27.757252 -7.416229 -1.345153 -18.409822 -177.340247 3.537389 -0.000002 -0.000005 -0.792950 -15.965659 0.553230 0.630761 -0.000004 0.000001 -0.119100 68.042467 -6.878229 -2.219192 25.456950 7.355621 -0.000005 
53.671204 -8.981548 83.165100 3.089567 1.307661 83.022322 -2.560636 1.163208 0.087811 -1.121041 2.323015 0.214307 0.524589 2.325412 0.186288 -14.038985 41.138520 0.877240 12.387429 -38.010047 -7.005749 20.453162 -45.741152 27.166056 102.799791 -3.386605 83.153476 -0.000002 0.000002 -0.000006 -0.029119 3.640861 -1.991411 0.000008 0.000002 -3.011596 -4.999900 -7.999888 -0.000004 -85.657846 73.437490 93.854818 99.169989 45.718267 -95.570582 -0.000016 0.000029 0.000005 -0.027255 -3.643680 1.990736 -0.000023 -0.000010 3.011610 -5.000143 7.999929 0.000025 -1.560815 -182.889940 -0.879198 179.999991 -0.000005 -1.122003 166.831769 1.774125 -0.418996 -0.000003 -0.000002 0.485009 72.557373 6.808256 2.131303 27.747126 -7.415921 -1.339665 -18.404119 -177.307886 3.542209 -0.000006 -0.000004 -0.791257 -15.907202 0.568884 0.630070 -0.000004 0.000001 -0.118256 68.035603 -6.878463 -2.219266 25.456950 7.355622 -0.000005 
53.691902 -8.978666 83.174896 3.130792 1.332601 82.962217 -2.560373 1.160511 0.088736 -1.120546 2.317577 0.216530 0.525090 2.320002 0.188548 -14.000196 41.110543 0.913733 12.400180 -37.949603 -6.950748 20.494143 -45.798867 27.199205 102.948798 -3.477472 83.201253 -0.000002 0.000001 -0.000003 -0.029141 3.640879 -1.991418 0.000009 0.000002 -3.011594 -4.999897 -7.999892 -0.000003 -85.535613 73.409514 93.737127 99.092016 45.915735 -95.594371 -0.000017 0.000029 0.000006 -0.027257 -3.643739 1.990737 -0.000020 -0.000010 3.011609 -5.000140 7.999929 0.000024 -1.609167 -182.825900 -0.854301 179.999991 -0.000004 -1.119996 166.818997 1.771106 -0.420283 -0.000003 -0.000002 0.485205 72.558971 6.808206 2.131199 27.736695 -7.415601 -1.334071 -18.397202 -177.276453 3.547380 -0.000002 -0.000005 -0.789576 -15.848243 0.584373 0.629323 -0.000003 0.000001 -0.117382 68.028732 -6.878656 -2.219431 25.456952 7.355621 -0.000005 
53.686401 -8.955290 83.178909 3.171761 1.356621 82.900328 -2.560030 1.157714 0.089637 -1.119872 2.311949 0.218731 0.525756 2.314402 0.190792 -13.961671 41.081122 0.950143 12.412612 -37.887414 -6.895979 20.534330 -45.857306 27.231273 103.096214 -3.570126 83.249030 -0.000001 0.000003 -0.000005 -0.029166 3.640910 -1.991418 0.000010 0.000004 -3.011590 -4.999899 -7.999890 0.000003 -85.406140 73.381162 93.612052 99.010251 46.118496 -95.617587 -0.000018 0.000029 0.000005 -0.027256 -3.643779 1.990737 -0.000017 -0.000010 3.011610 -5.000145 7.999929 0.000024 -1.656616 -182.762871 -0.829322 179.999991 -0.000005 -1.118999 166.806402 1.769073 -0.421345 -0.000003 -0.000002 0.485396 72.560562 6.808156 2.130993 27.725959 -7.415267 -1.328236 -18.389002 -177.244051 3.552237 -0.000006 -0.000004 -0.787914 -15.788884 0.599700 0.628534 -0.000004 0.000001 -0.116491 68.021861 -6.878891 -2.219505 25.456948 7.355623 -0.000005 
53.669502 -8.919088 83.181107 3.212433 1.379660 82.837176 -2.559598 1.154817 0.090516 -1.119016 2.306120 0.220899 0.526612 2.308602 0.193007 -13.922668 41.050540 0.986026 12.424169 -37.824228 -6.841666 20.573701 -45.916408 27.262118 103.241970 -3.664832 83.297941 -0.000001 0.000000 -0.000004 -0.029188 3.640939 -1.991418 0.000008 0.000002 -3.011592 -4.999899 -7.999890 -0.000004 -85.270185 73.352461 93.480298 98.924956 46.326492 -95.640386 -0.000017 0.000029 0.000006 -0.027259 -3.643809 1.990737 -0.000019 -0.000009 3.011609 -5.000145 7.999929 0.000025 -1.702898 -182.698818 -0.804491 179.999991 -0.000005 -1.117003 166.794121 1.766058 -0.421652 -0.000003 -0.000001 0.485601 72.562270 6.808100 2.130781 27.714620 -7.414901 -1.322106 -18.379599 -177.212577 3.557373 -0.000005 -0.000004 -0.786277 -15.729427 0.614866 0.627709 -0.000003 0.000001 -0.115592 68.015099 -6.879090 -2.219667 25.456952 7.355623 -0.000005 
53.673103 -8.902386 83.184708 3.252738 1.401620 82.773143 -2.559055 1.151831 0.091368 -1.117940 2.300112 0.223023 0.527683 2.302622 0.195183 -13.882363 41.019312 1.020925 12.434274 -37.760407 -6.788210 20.612391 -45.976131 27.291940 103.385705 -3.762008 83.347706 -0.000003 0.000003 -0.000006 -0.029214 3.640963 -1.991415 0.000008 0.000003 -3.011590 -4.999897 -7.999887 -0.000006 -85.127612 73.323884 93.341666 98.836218 46.539676 -95.662605 -0.000015 0.000029 0.000005 -0.027256 -3.643800 1.990737 -0.000015 -0.000010 3.011610 -5.000139 7.999929 0.000025 -1.747750 -182.635789 -0.779920 179.999991 -0.000005 -1.115994 166.782428 1.764032 -0.422745 -0.000004 -0.000002 0.485828 72.564094 6.808068 2.130466 27.702658 -7.414479 -1.315575 -18.368996 -177.181077 3.562456 -0.000005 -0.000004 -0.784676 -15.669769 0.629875 0.626856 -0.000004 0.000001 -0.114686 68.008323 -6.879292 -2.219829 25.456953 7.355623 -0.000005 
53.686405 -8.904127 83.191902 3.292625 1.422411 82.708776 -2.558382 1.148744 0.092193 -1.116625 2.293914 0.225086 0.528999 2.296442 0.197308 -13.839993 40.987627 1.054388 12.442419 -37.696798 -6.735870 20.650495 -46.036363 27.320873 103.527158 -3.862137 83.398310 -0.000002 0.000003 -0.000004 -0.029234 3.640989 -1.991413 0.000008 0.000005 -3.011595 -4.999898 -7.999893 0.000003 -84.979766 73.295450 93.197487 98.744236 46.758085 -95.684311 -0.000018 0.000029 0.000005 -0.027259 -3.643770 1.990737 -0.000021 -0.000010 3.011609 -5.000141 7.999928 0.000024 -1.790866 -182.573771 -0.755777 179.999991 -0.000005 -1.113999 166.771336 1.761997 -0.422864 -0.000004 -0.000002 0.486090 72.565999 6.808003 2.130339 27.689893 -7.413999 -1.308536 -18.357084 -177.150518 3.567763 -0.000003 -0.000005 -0.783115 -15.610109 0.644728 0.625985 -0.000003 0.000001 -0.113785 68.001568 -6.879530 -2.219896 25.456953 7.355622 -0.000005 
53.684101 -8.877176 83.197716 3.332069 1.441970 82.644449 -2.557591 1.145578 0.092992 -1.115038 2.287537 0.227081 0.530584 2.290091 0.199369 -13.794709 40.955880 1.085931 12.447983 -37.633758 -6.685086 20.687849 -46.097042 27.348882 103.666227 -3.965499 83.450575 -0.000002 0.000003 -0.000004 -0.029260 3.641010 -1.991415 0.000009 0.000005 -3.011595 -4.999898 -7.999890 0.000000 -84.826278 73.267432 93.047312 98.648989 46.981709 -95.705225 -0.000014 0.000029 0.000006 -0.027250 -3.643700 1.990737 -0.000022 -0.000010 3.011609 -5.000143 7.999930 0.000025 -1.831993 -182.512736 -0.732231 179.999991 -0.000005 -1.113002 166.761227 1.760953 -0.423793 -0.000002 -0.000002 0.486399 72.568137 6.807955 2.130002 27.676012 -7.413474 -1.300923 -18.343991 -177.118963 3.572641 -0.000005 -0.000004 -0.781604 -15.550553 0.659428 0.625107 -0.000004 0.000001 -0.112896 67.995011 -6.879746 -2.219947 25.456950 7.355622 -0.000005 
53.673504 -8.850396 83.198196 3.371019 1.460192 82.580696 -2.556638 1.142312 0.093758 -1.113152 2.280969 0.228992 0.532465 2.283552 0.201353 -13.745945 40.924530 1.115262 12.450432 -37.571863 -6.636079 20.724618 -46.158231 27.376003 103.802538 -4.072840 83.503263 -0.000002 0.000003 -0.000005 -0.029283 3.641039 -1.991410 0.000011 0.000004 -3.011593 -4.999897 -7.999888 -0.000004 -84.667749 73.240043 92.891686 98.550723 47.210353 -95.725504 -0.000017 0.000028 0.000005 -0.027258 -3.643579 1.990737 -0.000019 -0.000010 3.011609 -5.000142 7.999928 0.000024 -1.870854 -182.451715 -0.709477 179.999991 -0.000005 -1.110994 166.752238 1.759917 -0.423744 -0.000004 -0.000002 0.486765 72.570494 6.807928 2.129655 27.661112 -7.412856 -1.292621 -18.329579 -177.088336 3.577688 -0.000003 -0.000004 -0.780148 -15.491296 0.673975 0.624226 -0.000004 0.000001 -0.112022 67.988461 -6.879962 -2.220098 25.456947 7.355621 -0.000005 
53.679905 -8.834326 83.209099 3.409422 1.477006 82.517913 -2.555534 1.138947 0.094494 -1.110945 2.274223 0.230808 0.534668 2.276820 0.203255 -13.692701 40.893903 1.141788 12.449247 -37.511836 -6.589350 20.760869 -46.219716 27.402430 103.935842 -4.184169 83.557898 -0.000002 0.000003 -0.000005 -0.029307 3.641072 -1.991417 0.000009 0.000005 -3.011589 -4.999899 -7.999891 -0.000001 -84.504712 73.213576 92.731115 98.449650 47.443980 -95.745168 -0.000014 0.000028 0.000007 -0.027258 -3.643410 1.990736 -0.000015 -0.000010 3.011610 -5.000141 7.999930 0.000024 -1.907165 -182.393699 -0.687587 179.999991 -0.000005 -1.109996 166.744329 1.759860 -0.424498 -0.000004 -0.000002 0.487205 72.573157 6.807853 2.129383 27.644781 -7.412160 -1.283553 -18.313974 -177.057682 3.582544 -0.000002 -0.000004 -0.778757 -15.432341 0.688374 0.623359 -0.000004 0.000001 -0.111175 67.982102 -6.880121 -2.220225 25.456950 7.355624 -0.000005 
53.663204 -8.804069 83.210403 3.447263 1.492324 82.456516 -2.554250 1.135501 0.095195 -1.108387 2.267296 0.232515 0.537220 2.269920 0.205056 -13.634496 40.864240 1.165262 12.443836 -37.454258 -6.545041 20.796639 -46.281587 27.428124 104.066005 -4.300066 83.614247 -0.000003 0.000003 -0.000003 -0.029329 3.641088 -1.991414 0.000009 0.000004 -3.011591 -4.999900 -7.999891 -0.000002 -84.337851 73.188045 92.566234 98.345647 47.682688 -95.763842 -0.000017 0.000028 0.000006 -0.027261 -3.643189 1.990737 -0.000020 -0.000010 3.011609 -5.000142 7.999929 0.000024 -1.940654 -182.335684 -0.666821 179.999991 -0.000005 -1.108999 166.737922 1.760785 -0.425070 -0.000003 -0.000002 0.487728 72.576149 6.807791 2.128990 27.627045 -7.411365 -1.273619 -18.297158 -177.027957 3.587500 -0.000003 -0.000004 -0.777436 -15.373781 0.702626 0.622505 -0.000004 0.000001 -0.110359 67.975859 -6.880327 -2.220255 25.456952 7.355622 -0.000005 
